<svg xmlns="http://www.w3.org/2000/svg" width="180.86" height="39.285" viewBox="0 0 180.86 39.285"><g data-name="Gruppe 58"><g data-name="Gruppe 27"><g data-name="Gruppe 3" fill="#393939"><path data-name="Pfad 45" d="m79.745 2.359-1.445.179-3.549 15.219h-3.257L68.28 6.195h-.073l-3.208 11.562h-3.254L58.171 2.538l-1.434-.179V.243h6.451v2.116l-1.6.275 2.01 9.6h.073l3.287-12h2.587l3.3 12.021h.073l2-9.6-1.6-.275V.264h6.427Z"/><path data-name="Pfad 46" d="M87.833.243v2.116l-1.876.358v9.144a3.359 3.359 0 0 0 .935 2.593 3.623 3.623 0 0 0 2.559.862 3.7 3.7 0 0 0 2.564-.851 3.359 3.359 0 0 0 .941-2.6V2.721l-1.865-.358V.247h7.279v2.116l-1.876.358v9.144a5.554 5.554 0 0 1-1.954 4.53 7.754 7.754 0 0 1-5.1 1.6 7.688 7.688 0 0 1-5.073-1.6 5.6 5.6 0 0 1-1.932-4.546V2.702l-1.865-.358V.228h7.279Z"/><path data-name="Pfad 47" d="M117.29.243v2.116l-1.876.358v15.04h-3.5l-7.072-11.789h-.073v9.306l1.876.358v2.105h-7.278v-2.1l1.887-.358V2.709l-1.865-.358V.235h5.375l7.08 11.8h.073v-9.3l-1.876-.358V.261h7.279Z"/><path data-name="Pfad 48" d="M131.724 5.837h-2.632l-.459-2.408a4.659 4.659 0 0 0-1.332-.5 7.766 7.766 0 0 0-1.865-.218 3.589 3.589 0 0 0-2.24.6 1.892 1.892 0 0 0-.791 1.568 1.713 1.713 0 0 0 .823 1.461 11.383 11.383 0 0 0 2.848 1.21 11.1 11.1 0 0 1 4.4 2.128 4.418 4.418 0 0 1 1.5 3.477 4.16 4.16 0 0 1-1.78 3.55 7.777 7.777 0 0 1-4.692 1.3 10.179 10.179 0 0 1-3.74-.655 7.739 7.739 0 0 1-2.8-1.831v-3.656h2.728l.375 2.491a4.249 4.249 0 0 0 1.439.717 6.8 6.8 0 0 0 2.027.28 3.5 3.5 0 0 0 2.195-.588 1.9 1.9 0 0 0 .75-1.574 2.033 2.033 0 0 0-.717-1.624 7.245 7.245 0 0 0-2.508-1.154 14.277 14.277 0 0 1-4.715-2.136 4.054 4.054 0 0 1-1.646-3.401 4.171 4.171 0 0 1 1.8-3.481 7.516 7.516 0 0 1 4.535-1.389 10.549 10.549 0 0 1 3.679.616 8.505 8.505 0 0 1 2.8 1.635Z"/><path data-name="Pfad 49" d="M147.716 6.15h-2.611l-.358-2.335a3.673 3.673 0 0 0-1.3-.817 5.213 5.213 0 0 0-1.859-.3 4.121 4.121 0 0 0-3.516 1.68 7.082 7.082 0 0 0-1.232 4.328v.616a7.161 7.161 0 0 0 1.226 4.345 4.042 4.042 0 0 0 3.466 1.68 5.706 5.706 0 0 0 1.893-.3 3.158 3.158 0 0 0 1.327-.817l.358-2.335h2.611v3.466a7.531 7.531 0 0 1-2.7 1.954 8.958 8.958 0 0 1-3.674.728 7.5 7.5 0 0 1-5.776-2.442 8.886 8.886 0 0 1-2.24-6.265v-.588a8.959 8.959 0 0 1 2.24-6.265A7.47 7.47 0 0 1 141.355.03a8.807 8.807 0 0 1 3.667.739 7.873 7.873 0 0 1 2.7 1.954Z"/><path data-name="Pfad 50" d="M149.327 2.359V.243h7.279v2.116l-1.876.358v5.039h7.142V2.717l-1.876-.358V.243h7.279v2.116l-1.876.358v12.559l1.876.358v2.105h-7.279V15.63l1.876-.358v-4.81h-7.15v4.81l1.876.358v2.105h-7.276V15.63l1.865-.358V2.702Z"/><path data-name="Pfad 51" d="M177.017 7.999h3.844v2.69h-3.841v4.431h-2.963v-4.431h-3.877v-2.69h3.877V3.783h2.962Z"/><path data-name="Pfad 52" d="M73.963 26.302h-.073l-4.691 12.96h-2.381l-4.647-12.918h-.073l.336 7.688v2.755l1.876.358v2.105h-7.279v-2.109l1.865-.358V24.236l-1.865-.355v-2.12h6.451l4.48 12.906h.073l4.476-12.906h6.5v2.12l-1.876.358v12.574l1.876.358v2.105h-7.28v-2.105l1.865-.358v-2.755Z"/><path data-name="Pfad 53" d="m80.083 37.153 1.248-.179 5.33-15.23h3.594l5.292 15.23 1.248.179v2.105h-5.956v-2.105l1.215-.218-.767-2.408h-5.683l-.766 2.408 1.215.218v2.105h-5.97Zm6.329-5.208h4.02l-1.968-6.159h-.071Z"/><path data-name="Pfad 54" d="M97.95 23.86v-2.116h7.279v2.116l-1.9.375v12.57l1.876.358v2.1h-7.283v-2.1l1.876-.358v-12.57Z"/><path data-name="Pfad 55" d="m106.539 37.154 1.865-.358v-12.56l-1.865-.355v-2.12h7.16v2.12l-1.78.358v4.681h1.529l3.351-4.897-1.035-.142v-2.12h6.943v2.12l-1.9.324-4.3 5.734 4.837 6.915 1.758.3v2.109h-6.942v-2.105l1.081-.146-3.359-5.039h-1.962v4.849l1.779.359v2.1h-7.16Z"/><path data-name="Pfad 56" d="M124.137 23.86v-2.116h7.279v2.116l-1.887.375v12.57l1.876.358v2.1h-7.279v-2.1l1.876-.358v-12.57Z"/><path data-name="Pfad 57" d="M150.627 21.744v2.116l-1.876.358v15.04h-3.5l-7.077-11.789h-.073v9.312l1.876.358v2.105h-7.278v-2.105l1.865-.358V24.236l-1.865-.358v-2.116h5.375l7.072 11.789h.073v-9.314l-1.876-.358v-2.116h7.279Z"/><path data-name="Pfad 58" d="M159.636 21.745a7.228 7.228 0 0 1 5.291 2.049 7.072 7.072 0 0 1 2.083 5.263v2.9a7.042 7.042 0 0 1-2.083 5.263 7.279 7.279 0 0 1-5.291 2.038h-7.878v-2.105l1.865-.358V24.239l-1.865-.358v-2.116h7.878Zm-2.5 2.7V36.55h2.322a3.656 3.656 0 0 0 2.962-1.277 5.006 5.006 0 0 0 1.07-3.359v-2.916a4.972 4.972 0 0 0-1.07-3.309 3.656 3.656 0 0 0-2.962-1.277Z"/></g></g><g data-name="Gruppe 57"><g data-name="Gruppe 55" fill="#f46240"><path data-name="Pfad 80" d="M45.357 0H34.018l-5.67 9.82-5.67-9.819-5.67 9.819 5.67 9.823 5.67-9.82 5.67 9.82 5.67-9.82Z"/><path data-name="Pfad 81" d="M17.01 9.82 11.34.001H0l5.67 9.82 5.67 9.822Z"/></g><g data-name="Gruppe 56" fill="#23cbb2"><path data-name="Pfad 82" d="m28.348 29.46-5.67-9.82-5.67 9.819 5.67 9.819 5.67-9.819Z"/><path data-name="Pfad 83" d="m45.357 39.28-5.67-9.82-5.666-9.82-5.67 9.819 5.67 9.819H45.36Z"/><path data-name="Pfad 84" d="m17.01 29.46-5.671-9.82-5.67 9.819L0 39.28h11.339l-.006-.009.006.009 5.671-9.82Z"/></g></g></g></svg>