<svg width="285" height="56" viewBox="0 0 285 56" fill="none" xmlns="http://www.w3.org/2000/svg"><g clip-path="url(#a)"><path d="M23.463 55.998H.674a.672.672 0 0 1-.531-1.084L42.516.261c.393-.507 1.204-.229 1.204.411v25.061c0 .372.301.673.672.673H69.04c.558 0 .872.64.533 1.082L47.836 55.736a.678.678 0 0 1-.533.263h-6.825a.672.672 0 0 1-.672-.672V37.05c0-.644-.816-.92-1.206-.407L23.996 55.737a.676.676 0 0 1-.533.265v-.004Z" fill="#26D538"/><path d="M103.779 25.69h5.531v22.666h-5.531l-.249-2.811a7.354 7.354 0 0 1-2.46 2.459c-1.02.626-2.224.94-3.615.94-1.678 0-3.25-.317-4.714-.952a12.242 12.242 0 0 1-3.865-2.628 12.35 12.35 0 0 1-2.607-3.876c-.627-1.465-.941-3.038-.941-4.715 0-1.676.299-3.135.895-4.556a11.562 11.562 0 0 1 2.505-3.739 11.798 11.798 0 0 1 3.718-2.516c1.405-.604 2.916-.907 4.533-.907 1.497 0 2.836.334 4.023.998a10.371 10.371 0 0 1 3.027 2.54l-.25-2.902v-.002Zm-6.46 17.929c1.178 0 2.22-.295 3.127-.884.906-.588 1.617-1.386 2.131-2.39.514-1.004.77-2.11.77-3.32s-.257-2.34-.77-3.343a6.074 6.074 0 0 0-2.143-2.39c-.914-.59-1.952-.884-3.116-.884a5.916 5.916 0 0 0-3.185.895 6.626 6.626 0 0 0-2.29 2.39c-.567.998-.849 2.109-.849 3.332 0 1.223.288 2.335.861 3.331a6.615 6.615 0 0 0 2.301 2.381c.96.589 2.013.884 3.162.884v-.002Zm28.651 4.737h-7.141l-8.252-22.69h5.893l5.94 16.32 5.916-16.32h5.893l-8.251 22.69h.002Zm26.95-22.666h5.531v22.666h-5.531l-.25-2.811a7.35 7.35 0 0 1-2.459 2.459c-1.019.626-2.224.94-3.615.94-1.678 0-3.249-.317-4.714-.952a12.245 12.245 0 0 1-3.865-2.628 12.346 12.346 0 0 1-2.607-3.876c-.627-1.465-.941-3.038-.941-4.715 0-1.676.299-3.135.895-4.556a11.548 11.548 0 0 1 2.505-3.739 11.79 11.79 0 0 1 3.718-2.516c1.405-.604 2.916-.907 4.533-.907 1.495 0 2.836.334 4.023.998a10.371 10.371 0 0 1 3.027 2.54l-.25-2.902v-.002Zm-6.461 17.929c1.179 0 2.221-.295 3.128-.884.906-.588 1.617-1.386 2.131-2.39.514-1.004.772-2.11.772-3.32s-.258-2.34-.772-3.343a6.074 6.074 0 0 0-2.143-2.39c-.914-.59-1.952-.884-3.116-.884a5.917 5.917 0 0 0-3.185.895 6.62 6.62 0 0 0-2.289 2.39c-.566.998-.85 2.109-.85 3.332 0 1.223.288 2.335.861 3.331a6.621 6.621 0 0 0 2.301 2.381c.96.589 2.013.884 3.162.884v-.002Zm18.474-20.854c-.815 0-1.504-.268-2.062-.803-.56-.538-.839-1.214-.839-2.029s.28-1.474.839-2.017c.558-.545 1.238-.815 2.04-.815.801 0 1.476.272 2.028.815.552.545.827 1.217.827 2.017 0 .8-.273 1.491-.815 2.029-.545.537-1.218.803-2.018.803Zm-2.811 2.924h5.531v22.667h-5.531V25.689Zm10.154 22.667v-34h5.532v34h-5.532Zm26.814.408a12.178 12.178 0 0 1-3.412-.715 9.876 9.876 0 0 1-2.912-1.643 7.082 7.082 0 0 1-1.949-2.494l4.669-1.994c.181.303.476.623.884.964.407.34.895.623 1.46.85a5.003 5.003 0 0 0 1.871.338 5.65 5.65 0 0 0 1.644-.238c.522-.158.945-.404 1.268-.737.326-.331.488-.764.488-1.291 0-.559-.192-.995-.579-1.303-.385-.309-.869-.545-1.452-.703a80.025 80.025 0 0 0-1.689-.442 16.3 16.3 0 0 1-4-1.337c-1.232-.604-2.221-1.387-2.97-2.347-.748-.96-1.121-2.12-1.121-3.48 0-1.495.396-2.788 1.19-3.876.794-1.088 1.829-1.928 3.105-2.516 1.276-.589 2.655-.884 4.137-.884 1.798 0 3.449.373 4.952 1.122 1.503.748 2.694 1.802 3.57 3.162l-4.375 2.585a3.821 3.821 0 0 0-.884-1.01 5.299 5.299 0 0 0-1.292-.771 4.551 4.551 0 0 0-1.518-.35 6.09 6.09 0 0 0-1.859.18c-.56.15-1.007.408-1.348.771-.341.364-.511.846-.511 1.452s.227 1.002.68 1.28c.453.28 1 .495 1.644.646.642.15 1.257.318 1.848.499 1.329.438 2.581.975 3.752 1.61 1.171.633 2.11 1.413 2.823 2.334.71.922 1.049 2.025 1.019 3.31 0 1.466-.438 2.746-1.314 3.841-.877 1.095-2.006 1.931-3.389 2.505-1.383.573-2.859.8-4.43.68v.002Zm21.782.181c-2.085 0-3.984-.538-5.701-1.61-1.714-1.072-3.081-2.512-4.102-4.318-1.021-1.806-1.53-3.804-1.53-5.996 0-1.663.295-3.215.884-4.657a12.19 12.19 0 0 1 2.436-3.808 11.346 11.346 0 0 1 3.615-2.573 10.59 10.59 0 0 1 4.398-.93c2.086 0 3.985.537 5.701 1.61 1.715 1.072 3.082 2.516 4.103 4.33 1.021 1.813 1.53 3.822 1.53 6.028 0 1.648-.296 3.188-.884 4.625a12.243 12.243 0 0 1-2.436 3.796 11.389 11.389 0 0 1-3.604 2.573c-1.368.62-2.838.93-4.41.93Zm0-5.532c1.103 0 2.094-.295 2.97-.884a6.253 6.253 0 0 0 2.074-2.335c.507-.967.76-2.025.76-3.173 0-1.149-.261-2.255-.783-3.23a6.304 6.304 0 0 0-2.108-2.336 5.197 5.197 0 0 0-2.913-.872c-1.057 0-2.07.295-2.946.884-.876.588-1.572 1.375-2.086 2.358a6.791 6.791 0 0 0-.771 3.196c0 1.148.264 2.274.794 3.242a6.23 6.23 0 0 0 2.12 2.3c.884.566 1.847.85 2.889.85Zm13.692 4.943v-34h5.531v34h-5.531Zm26.859-22.666h5.531v22.666h-5.531l-.25-2.811a7.35 7.35 0 0 1-2.459 2.459c-1.019.626-2.224.94-3.615.94-1.678 0-3.249-.317-4.714-.952a12.234 12.234 0 0 1-3.865-2.628 12.366 12.366 0 0 1-2.608-3.876c-.626-1.465-.941-3.038-.941-4.715 0-1.676.299-3.135.896-4.556a11.562 11.562 0 0 1 2.504-3.739 11.805 11.805 0 0 1 3.719-2.516c1.405-.604 2.916-.907 4.533-.907 1.495 0 2.836.334 4.023.998a10.367 10.367 0 0 1 3.026 2.54l-.249-2.902v-.002Zm-6.461 17.929c1.179 0 2.221-.295 3.128-.884.906-.588 1.617-1.386 2.131-2.39.514-1.004.771-2.11.771-3.32s-.257-2.34-.771-3.343a6.081 6.081 0 0 0-2.143-2.39c-.914-.59-1.952-.884-3.116-.884a5.917 5.917 0 0 0-3.185.895 6.62 6.62 0 0 0-2.289 2.39c-.566.998-.85 2.109-.85 3.332 0 1.223.288 2.335.861 3.331a6.613 6.613 0 0 0 2.301 2.381c.96.589 2.013.884 3.162.884v-.002Zm15.688 4.737-.023-22.667h5.531l.023 2.018a8.492 8.492 0 0 1 2.766-1.938 8.445 8.445 0 0 1 3.468-.714c.831 0 1.663.122 2.494.362l-2.176 5.575a4.665 4.665 0 0 0-1.722-.34c-.891 0-1.704.215-2.436.645a4.83 4.83 0 0 0-1.744 1.745 4.717 4.717 0 0 0-.646 2.436v12.874h-5.532l-.003.004Z" fill="#fff"/></g><defs><clipPath id="a"><path fill="#fff" d="M0 0h284.907v56H0z"/></clipPath></defs></svg>