<svg width="285" height="56" viewBox="0 0 285 56" fill="none" xmlns="http://www.w3.org/2000/svg">
<g clip-path="url(#clip0_69_2682)">
<path d="M23.4629 55.9981H0.674308C0.116212 55.9981 -0.199978 55.3543 0.142879 54.9143L42.5162 0.260959C42.9086 -0.245708 43.72 0.0323872 43.72 0.672387V25.7333C43.72 26.1048 44.021 26.4057 44.3924 26.4057H69.04C69.5981 26.4057 69.9124 27.0457 69.5734 27.4876L47.8362 55.7372C47.7086 55.901 47.5124 56 47.3029 56H40.4781C40.1067 56 39.8057 55.6991 39.8057 55.3276V37.0514C39.8057 36.4076 38.9905 36.1314 38.6 36.6438L23.9962 55.7372C23.8686 55.9029 23.6705 56.0019 23.4629 56.0019V55.9981Z" fill="#26D538"/>
<path d="M103.779 25.6895H109.31V48.3562H103.779L103.53 45.5448C102.91 46.5581 102.09 47.3771 101.07 48.0038C100.05 48.6305 98.8457 48.9448 97.4553 48.9448C95.7772 48.9448 94.2057 48.6267 92.741 47.9924C91.2743 47.3581 89.9867 46.4819 88.8762 45.3638C87.7657 44.2457 86.8972 42.9543 86.2686 41.4876C85.6419 40.0228 85.3276 38.4495 85.3276 36.7733C85.3276 35.0971 85.6267 33.6381 86.2229 32.2171C86.8191 30.7962 87.6553 29.5505 88.7276 28.4781C89.8 27.4057 91.04 26.5657 92.4457 25.9619C93.8514 25.3581 95.3619 25.0552 96.9791 25.0552C98.4762 25.0552 99.8153 25.3886 101.002 26.0533C102.189 26.7181 103.196 27.5638 104.029 28.5924L103.779 25.6914V25.6895ZM97.3181 43.619C98.4972 43.619 99.5391 43.3238 100.446 42.7352C101.352 42.1467 102.063 41.3486 102.577 40.3448C103.091 39.3409 103.347 38.2343 103.347 37.0248C103.347 35.8152 103.09 34.6857 102.577 33.6819C102.063 32.6781 101.349 31.88 100.434 31.2914C99.52 30.7028 98.4819 30.4076 97.3181 30.4076C96.1543 30.4076 95.0934 30.7067 94.1334 31.3028C93.1734 31.899 92.4114 32.6971 91.8438 33.6933C91.2762 34.6914 90.9943 35.8019 90.9943 37.0248C90.9943 38.2476 91.2819 39.36 91.8553 40.3562C92.4286 41.3543 93.1962 42.1467 94.1562 42.7371C95.1162 43.3257 96.1695 43.6209 97.3181 43.6209V43.619Z" fill="#1C3F33"/>
<path d="M125.97 48.3562H118.829L110.577 25.6667H116.47L122.41 41.9867L128.326 25.6667H134.219L125.968 48.3562H125.97Z" fill="#1C3F33"/>
<path d="M152.92 25.6895H158.451V48.3562H152.92L152.67 45.5448C152.051 46.5581 151.23 47.3771 150.211 48.0038C149.192 48.6305 147.987 48.9448 146.596 48.9448C144.918 48.9448 143.347 48.6267 141.882 47.9924C140.415 47.3581 139.128 46.4819 138.017 45.3638C136.907 44.2457 136.038 42.9543 135.41 41.4876C134.783 40.0228 134.469 38.4495 134.469 36.7733C134.469 35.0971 134.768 33.6381 135.364 32.2171C135.96 30.7962 136.796 29.5505 137.869 28.4781C138.941 27.4057 140.181 26.5657 141.587 25.9619C142.992 25.3581 144.503 25.0552 146.12 25.0552C147.615 25.0552 148.956 25.3886 150.143 26.0533C151.33 26.7181 152.337 27.5638 153.17 28.5924L152.92 25.6914V25.6895ZM146.459 43.619C147.638 43.619 148.68 43.3238 149.587 42.7352C150.493 42.1467 151.204 41.3486 151.718 40.3448C152.232 39.3409 152.49 38.2343 152.49 37.0248C152.49 35.8152 152.232 34.6857 151.718 33.6819C151.204 32.6781 150.49 31.88 149.575 31.2914C148.661 30.7028 147.623 30.4076 146.459 30.4076C145.295 30.4076 144.234 30.7067 143.274 31.3028C142.314 31.899 141.552 32.6971 140.985 33.6933C140.419 34.6914 140.135 35.8019 140.135 37.0248C140.135 38.2476 140.423 39.36 140.996 40.3562C141.57 41.3543 142.337 42.1467 143.297 42.7371C144.257 43.3257 145.31 43.6209 146.459 43.6209V43.619Z" fill="#1C3F33"/>
<path d="M164.933 22.7657C164.118 22.7657 163.429 22.4971 162.871 21.9619C162.311 21.4248 162.032 20.7486 162.032 19.9333C162.032 19.1181 162.312 18.459 162.871 17.9162C163.429 17.3714 164.109 17.101 164.911 17.101C165.712 17.101 166.387 17.3733 166.939 17.9162C167.491 18.461 167.766 19.1333 167.766 19.9333C167.766 20.7333 167.493 21.4248 166.951 21.9619C166.406 22.499 165.733 22.7657 164.933 22.7657ZM162.122 25.6895H167.653V48.3562H162.122V25.6895Z" fill="#1C3F33"/>
<path d="M172.276 48.3562V14.3562H177.808V48.3562H172.276Z" fill="#1C3F33"/>
<path d="M199.09 48.7638C197.91 48.6876 196.773 48.4495 195.678 48.0495C194.583 47.6495 193.611 47.1009 192.766 46.4057C191.92 45.7105 191.27 44.88 190.817 43.9124L195.486 41.9181C195.667 42.2209 195.962 42.5409 196.37 42.8819C196.777 43.2229 197.265 43.5048 197.83 43.7314C198.398 43.9581 199.021 44.0705 199.701 44.0705C200.274 44.0705 200.823 43.9905 201.345 43.8324C201.867 43.6743 202.29 43.4286 202.613 43.0952C202.939 42.7638 203.101 42.3314 203.101 41.8038C203.101 41.2457 202.909 40.8095 202.522 40.5009C202.137 40.1924 201.653 39.9562 201.07 39.7981C200.488 39.64 199.926 39.4914 199.381 39.3562C197.945 39.0686 196.611 38.6229 195.381 38.019C194.149 37.4152 193.16 36.6324 192.411 35.6724C191.663 34.7124 191.29 33.5524 191.29 32.1924C191.29 30.6971 191.686 29.4038 192.48 28.3162C193.274 27.2286 194.309 26.3886 195.585 25.8C196.861 25.2114 198.24 24.9162 199.722 24.9162C201.52 24.9162 203.171 25.2895 204.674 26.0381C206.177 26.7867 207.368 27.84 208.244 29.2L203.869 31.7848C203.657 31.4228 203.362 31.0857 202.985 30.7752C202.608 30.4667 202.177 30.2095 201.693 30.0038C201.21 29.8 200.703 29.6838 200.175 29.6533C199.495 29.6228 198.876 29.6838 198.316 29.8343C197.756 29.9848 197.309 30.2419 196.968 30.6057C196.627 30.9695 196.457 31.4514 196.457 32.0571C196.457 32.6629 196.684 33.059 197.137 33.3371C197.59 33.6171 198.137 33.8324 198.781 33.9829C199.423 34.1333 200.038 34.3009 200.629 34.4819C201.958 34.92 203.21 35.4571 204.381 36.0914C205.552 36.7257 206.491 37.5048 207.204 38.4267C207.914 39.3486 208.253 40.4514 208.223 41.7352C208.223 43.2019 207.785 44.4819 206.909 45.5771C206.032 46.6724 204.903 47.5086 203.52 48.0819C202.137 48.6552 200.661 48.8819 199.09 48.7619V48.7638Z" fill="#1C3F33"/>
<path d="M220.872 48.9448C218.787 48.9448 216.888 48.4076 215.171 47.3352C213.457 46.2629 212.09 44.8229 211.069 43.0171C210.048 41.2114 209.539 39.2133 209.539 37.0209C209.539 35.3581 209.834 33.8057 210.423 32.3638C211.011 30.92 211.825 29.6514 212.859 28.5562C213.893 27.4609 215.099 26.6038 216.474 25.9829C217.85 25.3638 219.314 25.0533 220.872 25.0533C222.958 25.0533 224.857 25.5905 226.573 26.6629C228.288 27.7352 229.655 29.179 230.676 30.9924C231.697 32.8057 232.206 34.8152 232.206 37.0209C232.206 38.6686 231.91 40.2095 231.322 41.6457C230.733 43.0819 229.92 44.3467 228.886 45.4419C227.851 46.5371 226.65 47.3943 225.282 48.0152C223.914 48.6343 222.444 48.9448 220.872 48.9448ZM220.872 43.4133C221.975 43.4133 222.966 43.1181 223.842 42.5295C224.718 41.9409 225.41 41.1619 225.916 40.1943C226.423 39.2267 226.676 38.1695 226.676 37.0209C226.676 35.8724 226.415 34.7657 225.893 33.7905C225.371 32.8152 224.669 32.0381 223.785 31.4552C222.901 30.8743 221.93 30.5829 220.872 30.5829C219.815 30.5829 218.802 30.8781 217.926 31.4667C217.05 32.0552 216.354 32.8419 215.84 33.8248C215.326 34.8076 215.069 35.8724 215.069 37.0209C215.069 38.1695 215.333 39.2952 215.863 40.2629C216.392 41.2305 217.099 41.9962 217.983 42.5638C218.867 43.1295 219.83 43.4133 220.872 43.4133Z" fill="#1C3F33"/>
<path d="M234.564 48.3562V14.3562H240.095V48.3562H234.564Z" fill="#1C3F33"/>
<path d="M261.423 25.6895H266.954V48.3562H261.423L261.173 45.5448C260.554 46.5581 259.733 47.3771 258.714 48.0038C257.695 48.6305 256.49 48.9448 255.099 48.9448C253.421 48.9448 251.85 48.6267 250.385 47.9924C248.918 47.3581 247.63 46.4819 246.52 45.3638C245.41 44.2457 244.541 42.9543 243.912 41.4876C243.286 40.0228 242.971 38.4495 242.971 36.7733C242.971 35.0971 243.27 33.6381 243.867 32.2171C244.463 30.7962 245.299 29.5505 246.371 28.4781C247.444 27.4057 248.684 26.5657 250.09 25.9619C251.495 25.3581 253.006 25.0552 254.623 25.0552C256.118 25.0552 257.459 25.3886 258.646 26.0533C259.832 26.7181 260.84 27.5638 261.672 28.5924L261.423 25.6914V25.6895ZM254.962 43.619C256.141 43.619 257.183 43.3238 258.09 42.7352C258.996 42.1467 259.707 41.3486 260.221 40.3448C260.735 39.3409 260.992 38.2343 260.992 37.0248C260.992 35.8152 260.735 34.6857 260.221 33.6819C259.707 32.6781 258.992 31.88 258.078 31.2914C257.164 30.7028 256.126 30.4076 254.962 30.4076C253.798 30.4076 252.737 30.7067 251.777 31.3028C250.817 31.899 250.055 32.6971 249.488 33.6933C248.922 34.6914 248.638 35.8019 248.638 37.0248C248.638 38.2476 248.926 39.36 249.499 40.3562C250.072 41.3543 250.84 42.1467 251.8 42.7371C252.76 43.3257 253.813 43.6209 254.962 43.6209V43.619Z" fill="#1C3F33"/>
<path d="M270.65 48.3562L270.627 25.6895H276.158L276.181 27.7067C276.952 26.8914 277.872 26.2457 278.947 25.7695C280.019 25.2933 281.175 25.0552 282.415 25.0552C283.246 25.0552 284.078 25.1771 284.909 25.4171L282.733 30.9924C282.158 30.7657 281.585 30.6514 281.011 30.6514C280.12 30.6514 279.307 30.8667 278.575 31.2971C277.842 31.7276 277.261 32.3105 276.831 33.0419C276.4 33.7752 276.185 34.5867 276.185 35.4781V48.3524H270.653L270.65 48.3562Z" fill="#1C3F33"/>
</g>
<defs>
<clipPath id="clip0_69_2682">
<rect width="284.907" height="56" fill="white"/>
</clipPath>
</defs>
</svg>
