<svg width="14" height="18" viewBox="0 0 14 18" fill="none" xmlns="http://www.w3.org/2000/svg">
<path d="M8.66668 0.666672H2.00001C1.08334 0.666672 0.333344 1.41667 0.333344 2.33334V15.6667C0.333344 16.5833 1.08334 17.3333 2.00001 17.3333H12C12.9167 17.3333 13.6667 16.5833 13.6667 15.6667V5.66667L8.66668 0.666672ZM2.00001 15.6667V2.33334H7.83334V5.66667H12V15.6667H2.00001ZM6.16668 14.8333H7.83334V14H8.66668C9.12501 14 9.50001 13.625 9.50001 13.1667V10.6667C9.50001 10.2083 9.12501 9.83334 8.66668 9.83334H6.16668V9H9.50001V7.33334H7.83334V6.5H6.16668V7.33334H5.33334C4.87501 7.33334 4.50001 7.70834 4.50001 8.16667V10.6667C4.50001 11.125 4.87501 11.5 5.33334 11.5H7.83334V12.3333H4.50001V14H6.16668V14.8333Z" fill="#1C3F33"/>
</svg>
