<svg width="285" height="56" viewBox="0 0 285 56" fill="none" xmlns="http://www.w3.org/2000/svg">
<g clip-path="url(#clip0_69_2965)">
<path d="M23.4629 55.998H0.674308C0.116212 55.998 -0.199978 55.3542 0.142879 54.9142L42.5162 0.260852C42.9086 -0.245815 43.72 0.0322804 43.72 0.67228V25.7332C43.72 26.1047 44.021 26.4056 44.3924 26.4056H69.04C69.5981 26.4056 69.9124 27.0456 69.5734 27.4875L47.8362 55.737C47.7086 55.9009 47.5124 55.9999 47.3029 55.9999H40.4781C40.1067 55.9999 39.8057 55.699 39.8057 55.3275V37.0513C39.8057 36.4075 38.9905 36.1313 38.6 36.6437L23.9962 55.737C23.8686 55.9028 23.6705 56.0018 23.4629 56.0018V55.998Z" fill="#26D538"/>
<path d="M103.779 25.6895H109.31V48.3561H103.779L103.53 45.5447C102.91 46.558 102.09 47.3771 101.07 48.0037C100.05 48.6304 98.8457 48.9447 97.4553 48.9447C95.7772 48.9447 94.2057 48.6266 92.741 47.9923C91.2743 47.358 89.9867 46.4818 88.8762 45.3637C87.7657 44.2457 86.8972 42.9542 86.2686 41.4876C85.6419 40.0228 85.3276 38.4495 85.3276 36.7733C85.3276 35.0971 85.6267 33.638 86.2229 32.2171C86.8191 30.7961 87.6553 29.5504 88.7276 28.478C89.8 27.4057 91.04 26.5657 92.4457 25.9618C93.8514 25.358 95.3619 25.0552 96.9791 25.0552C98.4762 25.0552 99.8153 25.3885 101.002 26.0533C102.189 26.718 103.196 27.5637 104.029 28.5923L103.779 25.6914V25.6895ZM97.3181 43.619C98.4972 43.619 99.5391 43.3237 100.446 42.7352C101.352 42.1466 102.063 41.3485 102.577 40.3447C103.091 39.3409 103.347 38.2342 103.347 37.0247C103.347 35.8152 103.09 34.6857 102.577 33.6818C102.063 32.678 101.349 31.8799 100.434 31.2914C99.52 30.7028 98.4819 30.4076 97.3181 30.4076C96.1543 30.4076 95.0934 30.7066 94.1334 31.3028C93.1734 31.899 92.4114 32.6971 91.8438 33.6933C91.2762 34.6914 90.9943 35.8018 90.9943 37.0247C90.9943 38.2476 91.2819 39.3599 91.8553 40.3561C92.4286 41.3542 93.1962 42.1466 94.1562 42.7371C95.1162 43.3257 96.1695 43.6209 97.3181 43.6209V43.619Z" fill="white"/>
<path d="M125.97 48.356H118.829L110.577 25.6665H116.47L122.41 41.9865L128.326 25.6665H134.219L125.968 48.356H125.97Z" fill="white"/>
<path d="M152.92 25.6895H158.451V48.3561H152.92L152.67 45.5447C152.051 46.558 151.23 47.3771 150.211 48.0037C149.192 48.6304 147.987 48.9447 146.596 48.9447C144.918 48.9447 143.347 48.6266 141.882 47.9923C140.415 47.358 139.128 46.4818 138.017 45.3637C136.907 44.2457 136.038 42.9542 135.41 41.4876C134.783 40.0228 134.469 38.4495 134.469 36.7733C134.469 35.0971 134.768 33.638 135.364 32.2171C135.96 30.7961 136.796 29.5504 137.869 28.478C138.941 27.4057 140.181 26.5657 141.587 25.9618C142.992 25.358 144.503 25.0552 146.12 25.0552C147.615 25.0552 148.956 25.3885 150.143 26.0533C151.33 26.718 152.337 27.5637 153.17 28.5923L152.92 25.6914V25.6895ZM146.459 43.619C147.638 43.619 148.68 43.3237 149.587 42.7352C150.493 42.1466 151.204 41.3485 151.718 40.3447C152.232 39.3409 152.49 38.2342 152.49 37.0247C152.49 35.8152 152.232 34.6857 151.718 33.6818C151.204 32.678 150.49 31.8799 149.575 31.2914C148.661 30.7028 147.623 30.4076 146.459 30.4076C145.295 30.4076 144.234 30.7066 143.274 31.3028C142.314 31.899 141.552 32.6971 140.985 33.6933C140.419 34.6914 140.135 35.8018 140.135 37.0247C140.135 38.2476 140.423 39.3599 140.996 40.3561C141.57 41.3542 142.337 42.1466 143.297 42.7371C144.257 43.3257 145.31 43.6209 146.459 43.6209V43.619Z" fill="white"/>
<path d="M164.933 22.7653C164.118 22.7653 163.429 22.4968 162.871 21.9615C162.311 21.4244 162.032 20.7482 162.032 19.933C162.032 19.1177 162.312 18.4587 162.871 17.9158C163.429 17.3711 164.109 17.1006 164.911 17.1006C165.712 17.1006 166.387 17.373 166.939 17.9158C167.491 18.4606 167.766 19.133 167.766 19.933C167.766 20.733 167.493 21.4244 166.951 21.9615C166.406 22.4987 165.733 22.7653 164.933 22.7653ZM162.122 25.6892H167.653V48.3558H162.122V25.6892Z" fill="white"/>
<path d="M172.276 48.356V14.356H177.808V48.356H172.276Z" fill="white"/>
<path d="M199.09 48.7636C197.91 48.6874 196.773 48.4493 195.678 48.0493C194.583 47.6493 193.611 47.1008 192.766 46.4055C191.92 45.7103 191.27 44.8798 190.817 43.9122L195.486 41.9179C195.667 42.2208 195.962 42.5408 196.37 42.8817C196.777 43.2227 197.265 43.5046 197.83 43.7313C198.398 43.9579 199.021 44.0703 199.701 44.0703C200.274 44.0703 200.823 43.9903 201.345 43.8322C201.867 43.6741 202.29 43.4284 202.613 43.0951C202.939 42.7636 203.101 42.3313 203.101 41.8036C203.101 41.2455 202.909 40.8094 202.522 40.5008C202.137 40.1922 201.653 39.956 201.07 39.7979C200.488 39.6398 199.926 39.4913 199.381 39.356C197.945 39.0684 196.611 38.6227 195.381 38.0189C194.149 37.4151 193.16 36.6322 192.411 35.6722C191.663 34.7122 191.29 33.5522 191.29 32.1922C191.29 30.697 191.686 29.4036 192.48 28.316C193.274 27.2284 194.309 26.3884 195.585 25.7998C196.861 25.2113 198.24 24.916 199.722 24.916C201.52 24.916 203.171 25.2893 204.674 26.0379C206.177 26.7865 207.368 27.8398 208.244 29.1998L203.869 31.7846C203.657 31.4227 203.362 31.0855 202.985 30.7751C202.608 30.4665 202.177 30.2094 201.693 30.0036C201.21 29.7998 200.703 29.6836 200.175 29.6532C199.495 29.6227 198.876 29.6836 198.316 29.8341C197.756 29.9846 197.309 30.2417 196.968 30.6055C196.627 30.9693 196.457 31.4513 196.457 32.057C196.457 32.6627 196.684 33.0589 197.137 33.337C197.59 33.617 198.137 33.8322 198.781 33.9827C199.423 34.1332 200.038 34.3008 200.629 34.4817C201.958 34.9198 203.21 35.457 204.381 36.0913C205.552 36.7255 206.491 37.5046 207.204 38.4265C207.914 39.3484 208.253 40.4513 208.223 41.7351C208.223 43.2017 207.785 44.4817 206.909 45.577C206.032 46.6722 204.903 47.5084 203.52 48.0817C202.137 48.6551 200.661 48.8817 199.09 48.7617V48.7636Z" fill="white"/>
<path d="M220.872 48.9447C218.787 48.9447 216.888 48.4075 215.171 47.3351C213.457 46.2627 212.09 44.8227 211.069 43.017C210.048 41.2113 209.539 39.2132 209.539 37.0208C209.539 35.358 209.834 33.8056 210.423 32.3637C211.011 30.9199 211.825 29.6513 212.859 28.5561C213.893 27.4608 215.099 26.6037 216.474 25.9827C217.85 25.3637 219.314 25.0532 220.872 25.0532C222.958 25.0532 224.857 25.5904 226.573 26.6627C228.288 27.7351 229.655 29.1789 230.676 30.9923C231.697 32.8056 232.206 34.8151 232.206 37.0208C232.206 38.6685 231.91 40.2094 231.322 41.6456C230.733 43.0818 229.92 44.3466 228.886 45.4418C227.851 46.537 226.65 47.3942 225.282 48.0151C223.914 48.6342 222.444 48.9447 220.872 48.9447ZM220.872 43.4132C221.975 43.4132 222.966 43.118 223.842 42.5294C224.718 41.9408 225.41 41.1618 225.916 40.1942C226.423 39.2266 226.676 38.1694 226.676 37.0208C226.676 35.8723 226.415 34.7656 225.893 33.7904C225.371 32.8151 224.669 32.038 223.785 31.4551C222.901 30.8742 221.93 30.5827 220.872 30.5827C219.815 30.5827 218.802 30.878 217.926 31.4666C217.05 32.0551 216.354 32.8418 215.84 33.8247C215.326 34.8075 215.069 35.8723 215.069 37.0208C215.069 38.1694 215.333 39.2951 215.863 40.2627C216.392 41.2304 217.099 41.9961 217.983 42.5637C218.867 43.1294 219.83 43.4132 220.872 43.4132Z" fill="white"/>
<path d="M234.564 48.356V14.356H240.095V48.356H234.564Z" fill="white"/>
<path d="M261.423 25.6895H266.954V48.3561H261.423L261.173 45.5447C260.554 46.558 259.733 47.3771 258.714 48.0037C257.695 48.6304 256.49 48.9447 255.099 48.9447C253.421 48.9447 251.85 48.6266 250.385 47.9923C248.918 47.358 247.63 46.4818 246.52 45.3637C245.41 44.2457 244.541 42.9542 243.912 41.4876C243.286 40.0228 242.971 38.4495 242.971 36.7733C242.971 35.0971 243.27 33.638 243.867 32.2171C244.463 30.7961 245.299 29.5504 246.371 28.478C247.444 27.4057 248.684 26.5657 250.09 25.9618C251.495 25.358 253.006 25.0552 254.623 25.0552C256.118 25.0552 257.459 25.3885 258.646 26.0533C259.832 26.718 260.84 27.5637 261.672 28.5923L261.423 25.6914V25.6895ZM254.962 43.619C256.141 43.619 257.183 43.3237 258.09 42.7352C258.996 42.1466 259.707 41.3485 260.221 40.3447C260.735 39.3409 260.992 38.2342 260.992 37.0247C260.992 35.8152 260.735 34.6857 260.221 33.6818C259.707 32.678 258.992 31.8799 258.078 31.2914C257.164 30.7028 256.126 30.4076 254.962 30.4076C253.798 30.4076 252.737 30.7066 251.777 31.3028C250.817 31.899 250.055 32.6971 249.488 33.6933C248.922 34.6914 248.638 35.8018 248.638 37.0247C248.638 38.2476 248.926 39.3599 249.499 40.3561C250.072 41.3542 250.84 42.1466 251.8 42.7371C252.76 43.3257 253.813 43.6209 254.962 43.6209V43.619Z" fill="white"/>
<path d="M270.65 48.3561L270.627 25.6895H276.158L276.181 27.7066C276.952 26.8914 277.872 26.2457 278.947 25.7695C280.019 25.2933 281.175 25.0552 282.415 25.0552C283.246 25.0552 284.078 25.1771 284.909 25.4171L282.733 30.9923C282.158 30.7657 281.585 30.6514 281.011 30.6514C280.12 30.6514 279.307 30.8666 278.575 31.2971C277.842 31.7276 277.261 32.3104 276.831 33.0418C276.4 33.7752 276.185 34.5866 276.185 35.478V48.3523H270.653L270.65 48.3561Z" fill="white"/>
</g>
<defs>
<clipPath id="clip0_69_2965">
<rect width="284.907" height="56" fill="white"/>
</clipPath>
</defs>
</svg>
