<svg xmlns="http://www.w3.org/2000/svg" width="180.86" height="39.285" viewBox="0 0 180.86 39.285">
  <g id="Gruppe_58" data-name="Gruppe 58" transform="translate(-161 -141)">
    <g id="Gruppe_27" data-name="Gruppe 27" transform="translate(217.733 141.002)">
      <g id="Gruppe_3" data-name="Gruppe 3" transform="translate(0 0)">
        <path id="Pfad_45" data-name="Pfad 45" d="M-1-115.747l-1.445.179-3.549,15.219H-9.251l-3.214-11.562h-.073l-3.208,11.562H-19l-3.574-15.219-1.434-.179v-2.116h6.451v2.116l-1.6.275,2.01,9.6h.073l3.287-12h2.587l3.3,12.021h.073l2-9.6-1.6-.275v-2.116H-1Z" transform="translate(24.012 118.104)" fill="#393939"/>
        <path id="Pfad_46" data-name="Pfad 46" d="M25.826-117.859v2.116l-1.876.358v9.144a3.359,3.359,0,0,0,.935,2.593,3.623,3.623,0,0,0,2.559.862,3.7,3.7,0,0,0,2.564-.851,3.359,3.359,0,0,0,.941-2.6v-9.144l-1.865-.358v-2.116h7.279v2.116l-1.876.358v9.144a5.554,5.554,0,0,1-1.954,4.53,7.754,7.754,0,0,1-5.1,1.6,7.688,7.688,0,0,1-5.073-1.6,5.6,5.6,0,0,1-1.932-4.546V-115.4l-1.865-.358v-2.116h7.279Z" transform="translate(5.274 118.1)" fill="#393939"/>
        <path id="Pfad_47" data-name="Pfad 47" d="M70.053-117.859v2.116l-1.876.358v15.04h-3.5l-7.072-11.789h-.073v9.306l1.876.358v2.105H52.13v-2.1l1.887-.358v-12.57l-1.865-.358v-2.116h5.375l7.08,11.8h.073v-9.3l-1.876-.358v-2.116h7.279Z" transform="translate(-9.496 118.1)" fill="#393939"/>
        <path id="Pfad_48" data-name="Pfad 48" d="M99.832-112.447H97.2l-.459-2.408a4.659,4.659,0,0,0-1.332-.5,7.766,7.766,0,0,0-1.865-.218,3.589,3.589,0,0,0-2.24.6,1.892,1.892,0,0,0-.791,1.568,1.713,1.713,0,0,0,.823,1.461,11.383,11.383,0,0,0,2.848,1.21,11.1,11.1,0,0,1,4.4,2.128,4.418,4.418,0,0,1,1.5,3.477,4.16,4.16,0,0,1-1.78,3.55,7.777,7.777,0,0,1-4.692,1.3,10.179,10.179,0,0,1-3.74-.655,7.739,7.739,0,0,1-2.8-1.831v-3.656H89.8l.375,2.491a4.249,4.249,0,0,0,1.439.717,6.8,6.8,0,0,0,2.027.28,3.5,3.5,0,0,0,2.195-.588,1.9,1.9,0,0,0,.75-1.574,2.033,2.033,0,0,0-.717-1.624,7.245,7.245,0,0,0-2.508-1.154,14.277,14.277,0,0,1-4.715-2.136A4.054,4.054,0,0,1,87-113.41a4.171,4.171,0,0,1,1.8-3.481,7.516,7.516,0,0,1,4.535-1.389,10.549,10.549,0,0,1,3.679.616,8.505,8.505,0,0,1,2.8,1.635Z" transform="translate(-24.841 118.282)" fill="#393939"/>
        <path id="Pfad_49" data-name="Pfad 49" d="M127.168-112.118h-2.611l-.358-2.335a3.673,3.673,0,0,0-1.3-.817,5.213,5.213,0,0,0-1.859-.3,4.121,4.121,0,0,0-3.516,1.68,7.082,7.082,0,0,0-1.232,4.328v.616a7.161,7.161,0,0,0,1.226,4.345,4.042,4.042,0,0,0,3.466,1.68,5.706,5.706,0,0,0,1.893-.3,3.158,3.158,0,0,0,1.327-.817l.358-2.335h2.611v3.466a7.531,7.531,0,0,1-2.7,1.954,8.958,8.958,0,0,1-3.674.728,7.5,7.5,0,0,1-5.776-2.442,8.886,8.886,0,0,1-2.24-6.265v-.588a8.959,8.959,0,0,1,2.24-6.265,7.47,7.47,0,0,1,5.784-2.453,8.807,8.807,0,0,1,3.667.739,7.873,7.873,0,0,1,2.7,1.954Z" transform="translate(-36.185 118.266)" fill="#393939"/>
        <path id="Pfad_50" data-name="Pfad 50" d="M141.355-115.734v-2.116h7.279v2.116l-1.876.358v5.039H153.9v-5.039l-1.876-.358v-2.116h7.279v2.116l-1.876.358v12.559l1.876.358v2.105h-7.279v-2.109l1.876-.358v-4.81h-7.15v4.81l1.876.358v2.105H141.35v-2.105l1.865-.358v-12.57Z" transform="translate(-48.761 118.091)" fill="#393939"/>
        <path id="Pfad_51" data-name="Pfad 51" d="M185.437-107.313h3.844v2.69H185.44v4.431h-2.963v-4.431H178.6v-2.69h3.877v-4.216h2.962Z" transform="translate(-65.153 115.31)" fill="#393939"/>
        <path id="Pfad_52" data-name="Pfad 52" d="M-6.548-74.879h-.073l-4.691,12.96h-2.381L-18.34-74.837h-.073l.336,7.688v2.755l1.876.358v2.105H-23.48v-2.109l1.865-.358V-76.945L-23.48-77.3V-79.42h6.451l4.48,12.906h.073L-8-79.42h6.5V-77.3l-1.876.358v12.574l1.876.358v2.105H-8.78v-2.105l1.865-.358v-2.755Z" transform="translate(23.778 101.179)" fill="#393939"/>
        <path id="Pfad_53" data-name="Pfad 53" d="M17.69-64.041l1.248-.179,5.33-15.23h3.594l5.292,15.23,1.248.179v2.105H28.446v-2.105l1.215-.218-.767-2.408H23.211l-.766,2.408,1.215.218v2.105H17.69Zm6.329-5.208h4.02l-1.968-6.159H26Z" transform="translate(5.66 101.192)" fill="#393939"/>
        <path id="Pfad_54" data-name="Pfad 54" d="M49.578-77.334V-79.45h7.279v2.116l-1.9.375v12.57l1.876.358v2.1H49.55v-2.1l1.876-.358v-12.57Z" transform="translate(-8.361 101.192)" fill="#393939"/>
        <path id="Pfad_55" data-name="Pfad 55" d="M64.94-64.027l1.865-.358V-76.945L64.94-77.3V-79.42H72.1V-77.3l-1.78.358v4.681h1.529L75.2-77.158,74.165-77.3V-79.42h6.943V-77.3l-1.9.324-4.3,5.734,4.837,6.915,1.758.3v2.109H74.561v-2.105l1.081-.146-3.359-5.039H70.321v4.849L72.1-64V-61.9H64.94Z" transform="translate(-15.134 101.179)" fill="#393939"/>
        <path id="Pfad_56" data-name="Pfad 56" d="M96.361-77.334V-79.45h7.279v2.116l-1.887.375v12.57l1.876.358v2.1H96.35v-2.1l1.876-.358v-12.57Z" transform="translate(-28.957 101.192)" fill="#393939"/>
        <path id="Pfad_57" data-name="Pfad 57" d="M129.588-79.45v2.116l-1.876.358v15.04h-3.5l-7.077-11.789h-.073v9.312l1.876.358v2.105H111.66v-2.105l1.865-.358V-76.958l-1.865-.358v-2.116h5.375l7.072,11.789h.073v-9.314l-1.876-.358v-2.116h7.279Z" transform="translate(-35.694 101.192)" fill="#393939"/>
        <path id="Pfad_58" data-name="Pfad 58" d="M153.578-79.453a7.228,7.228,0,0,1,5.291,2.049,7.072,7.072,0,0,1,2.083,5.263v2.9a7.042,7.042,0,0,1-2.083,5.263,7.279,7.279,0,0,1-5.291,2.038H145.7v-2.105l1.865-.358V-76.959l-1.865-.358v-2.116h7.878Zm-2.5,2.7v12.105H153.4a3.656,3.656,0,0,0,2.962-1.277,5.006,5.006,0,0,0,1.07-3.359V-72.2a4.972,4.972,0,0,0-1.07-3.309,3.656,3.656,0,0,0-2.962-1.277Z" transform="translate(-50.675 101.196)" fill="#393939"/>
      </g>
    </g>
    <g id="Gruppe_57" data-name="Gruppe 57" transform="translate(161 141)">
      <g id="Gruppe_55" data-name="Gruppe 55" transform="translate(0 0)">
        <path id="Pfad_80" data-name="Pfad 80" d="M115.624,27.673H104.285l-5.67,9.82-5.67-9.819-5.67,9.819h0l5.67,9.823,5.67-9.82h0l5.67,9.82,5.67-9.82h0Z" transform="translate(-70.267 -27.673)" fill="#f46240"/>
        <path id="Pfad_81" data-name="Pfad 81" d="M49.01,37.493l-5.67-9.819H32l5.67,9.82h0l5.67,9.822Z" transform="translate(-32 -27.673)" fill="#f46240"/>
      </g>
      <g id="Gruppe_56" data-name="Gruppe 56" transform="translate(0 19.64)">
        <path id="Pfad_82" data-name="Pfad 82" d="M98.615,101.32l-5.67-9.82-5.67,9.819h0l5.67,9.819,5.67-9.819h0Z" transform="translate(-70.267 -91.5)" fill="#23cbb2"/>
        <path id="Pfad_83" data-name="Pfad 83" d="M141.136,111.14l-5.67-9.82h0L129.8,91.5l-5.67,9.819h0l5.67,9.819h11.339Z" transform="translate(-95.779 -91.5)" fill="#23cbb2"/>
        <path id="Pfad_84" data-name="Pfad 84" d="M49.01,101.32h0L43.339,91.5l-5.67,9.819h0L32,111.14H43.339l-.006-.009.006.009,5.671-9.82Z" transform="translate(-32 -91.5)" fill="#23cbb2"/>
      </g>
    </g>
  </g>
</svg>
